<?xml version="1.0" encoding="UTF-8" standalone="no"?>
<!-- Created with Inkscape (http://www.inkscape.org/) -->

<svg
   xmlns:dc="http://purl.org/dc/elements/1.1/"
   xmlns:cc="http://creativecommons.org/ns#"
   xmlns:rdf="http://www.w3.org/1999/02/22-rdf-syntax-ns#"
   xmlns:svg="http://www.w3.org/2000/svg"
   xmlns="http://www.w3.org/2000/svg"
   xmlns:sodipodi="http://sodipodi.sourceforge.net/DTD/sodipodi-0.dtd"
   xmlns:inkscape="http://www.inkscape.org/namespaces/inkscape"
   width="141.31111mm"
   height="180.01587mm"
   viewBox="0 0 500.70866 637.8515"
   id="svg2"
   version="1.1"
   inkscape:version="0.91 r13725"
   sodipodi:docname="Logo_Prueba.svg">
  <defs
     id="defs4">
    <marker
       inkscape:stockid="DotL"
       orient="auto"
       refY="0"
       refX="0"
       id="marker50245"
       style="overflow:visible"
       inkscape:isstock="true">
      <path
         id="path50247"
         d="m -2.5,-1 c 0,2.76 -2.24,5 -5,5 -2.76,0 -5,-2.24 -5,-5 0,-2.76 2.24,-5 5,-5 2.76,0 5,2.24 5,5 z"
         style="fill:#000000;fill-opacity:1;fill-rule:evenodd;stroke:#000000;stroke-width:1pt;stroke-opacity:1"
         transform="matrix(0.8,0,0,0.8,5.92,0.8)"
         inkscape:connector-curvature="0" />
    </marker>
    <marker
       inkscape:stockid="DotL"
       orient="auto"
       refY="0"
       refX="0"
       id="marker50019"
       style="overflow:visible"
       inkscape:isstock="true">
      <path
         id="path50021"
         d="m -2.5,-1 c 0,2.76 -2.24,5 -5,5 -2.76,0 -5,-2.24 -5,-5 0,-2.76 2.24,-5 5,-5 2.76,0 5,2.24 5,5 z"
         style="fill:#000000;fill-opacity:1;fill-rule:evenodd;stroke:#000000;stroke-width:1pt;stroke-opacity:1"
         transform="matrix(0.8,0,0,0.8,5.92,0.8)"
         inkscape:connector-curvature="0" />
    </marker>
    <marker
       inkscape:isstock="true"
       style="overflow:visible"
       id="marker33023"
       refX="0"
       refY="0"
       orient="auto"
       inkscape:stockid="DotL">
      <path
         transform="matrix(0.8,0,0,0.8,5.92,0.8)"
         style="fill:#000000;fill-opacity:1;fill-rule:evenodd;stroke:#000000;stroke-width:1pt;stroke-opacity:1"
         d="m -2.5,-1 c 0,2.76 -2.24,5 -5,5 -2.76,0 -5,-2.24 -5,-5 0,-2.76 2.24,-5 5,-5 2.76,0 5,2.24 5,5 z"
         id="path33025"
         inkscape:connector-curvature="0" />
    </marker>
    <marker
       inkscape:isstock="true"
       style="overflow:visible"
       id="marker32821"
       refX="0"
       refY="0"
       orient="auto"
       inkscape:stockid="DotL">
      <path
         transform="matrix(0.8,0,0,0.8,5.92,0.8)"
         style="fill:#000000;fill-opacity:1;fill-rule:evenodd;stroke:#000000;stroke-width:1pt;stroke-opacity:1"
         d="m -2.5,-1 c 0,2.76 -2.24,5 -5,5 -2.76,0 -5,-2.24 -5,-5 0,-2.76 2.24,-5 5,-5 2.76,0 5,2.24 5,5 z"
         id="path32823"
         inkscape:connector-curvature="0" />
    </marker>
    <marker
       inkscape:isstock="true"
       style="overflow:visible"
       id="marker31927"
       refX="0"
       refY="0"
       orient="auto"
       inkscape:stockid="DotL">
      <path
         transform="matrix(0.8,0,0,0.8,5.92,0.8)"
         style="fill:#000000;fill-opacity:1;fill-rule:evenodd;stroke:#000000;stroke-width:1pt;stroke-opacity:1"
         d="m -2.5,-1 c 0,2.76 -2.24,5 -5,5 -2.76,0 -5,-2.24 -5,-5 0,-2.76 2.24,-5 5,-5 2.76,0 5,2.24 5,5 z"
         id="path31929"
         inkscape:connector-curvature="0" />
    </marker>
    <marker
       inkscape:isstock="true"
       style="overflow:visible"
       id="marker31737"
       refX="0"
       refY="0"
       orient="auto"
       inkscape:stockid="DotL">
      <path
         transform="matrix(0.8,0,0,0.8,5.92,0.8)"
         style="fill:#000000;fill-opacity:1;fill-rule:evenodd;stroke:#000000;stroke-width:1pt;stroke-opacity:1"
         d="m -2.5,-1 c 0,2.76 -2.24,5 -5,5 -2.76,0 -5,-2.24 -5,-5 0,-2.76 2.24,-5 5,-5 2.76,0 5,2.24 5,5 z"
         id="path31739"
         inkscape:connector-curvature="0" />
    </marker>
    <marker
       inkscape:isstock="true"
       style="overflow:visible"
       id="marker28619"
       refX="0"
       refY="0"
       orient="auto"
       inkscape:stockid="DotL">
      <path
         transform="matrix(0.8,0,0,0.8,5.92,0.8)"
         style="fill:#000000;fill-opacity:1;fill-rule:evenodd;stroke:#000000;stroke-width:1pt;stroke-opacity:1"
         d="m -2.5,-1 c 0,2.76 -2.24,5 -5,5 -2.76,0 -5,-2.24 -5,-5 0,-2.76 2.24,-5 5,-5 2.76,0 5,2.24 5,5 z"
         id="path28621"
         inkscape:connector-curvature="0" />
    </marker>
    <marker
       inkscape:isstock="true"
       style="overflow:visible"
       id="marker28453"
       refX="0"
       refY="0"
       orient="auto"
       inkscape:stockid="DotL">
      <path
         transform="matrix(0.8,0,0,0.8,5.92,0.8)"
         style="fill:#000000;fill-opacity:1;fill-rule:evenodd;stroke:#000000;stroke-width:1pt;stroke-opacity:1"
         d="m -2.5,-1 c 0,2.76 -2.24,5 -5,5 -2.76,0 -5,-2.24 -5,-5 0,-2.76 2.24,-5 5,-5 2.76,0 5,2.24 5,5 z"
         id="path28455"
         inkscape:connector-curvature="0" />
    </marker>
    <marker
       inkscape:stockid="DotL"
       orient="auto"
       refY="0"
       refX="0"
       id="marker22907"
       style="overflow:visible"
       inkscape:isstock="true">
      <path
         id="path22909"
         d="m -2.5,-1 c 0,2.76 -2.24,5 -5,5 -2.76,0 -5,-2.24 -5,-5 0,-2.76 2.24,-5 5,-5 2.76,0 5,2.24 5,5 z"
         style="fill:#000000;fill-opacity:1;fill-rule:evenodd;stroke:#000000;stroke-width:1pt;stroke-opacity:1"
         transform="matrix(0.8,0,0,0.8,5.92,0.8)"
         inkscape:connector-curvature="0" />
    </marker>
    <marker
       inkscape:stockid="DotL"
       orient="auto"
       refY="0"
       refX="0"
       id="marker22777"
       style="overflow:visible"
       inkscape:isstock="true">
      <path
         id="path22779"
         d="m -2.5,-1 c 0,2.76 -2.24,5 -5,5 -2.76,0 -5,-2.24 -5,-5 0,-2.76 2.24,-5 5,-5 2.76,0 5,2.24 5,5 z"
         style="fill:#000000;fill-opacity:1;fill-rule:evenodd;stroke:#000000;stroke-width:1pt;stroke-opacity:1"
         transform="matrix(0.8,0,0,0.8,5.92,0.8)"
         inkscape:connector-curvature="0" />
    </marker>
  </defs>
  <sodipodi:namedview
     id="base"
     pagecolor="#ffffff"
     bordercolor="#666666"
     borderopacity="1.0"
     inkscape:pageopacity="0.0"
     inkscape:pageshadow="2"
     inkscape:zoom="2.8"
     inkscape:cx="221.16813"
     inkscape:cy="150.29702"
     inkscape:document-units="px"
     inkscape:current-layer="layer1"
     showgrid="false"
     inkscape:window-width="1600"
     inkscape:window-height="831"
     inkscape:window-x="0"
     inkscape:window-y="0"
     inkscape:window-maximized="1"
     inkscape:object-paths="false"
     inkscape:snap-intersection-paths="false"
     inkscape:object-nodes="false"
     inkscape:snap-smooth-nodes="false"
     inkscape:snap-midpoints="false"
     inkscape:snap-bbox="false"
     fit-margin-top="0.1"
     fit-margin-left="0.1"
     fit-margin-bottom="0.1"
     fit-margin-right="0.1" />
  <metadata
     id="metadata7">
    <rdf:RDF>
      <cc:Work
         rdf:about="">
        <dc:format>image/svg+xml</dc:format>
        <dc:type
           rdf:resource="http://purl.org/dc/dcmitype/StillImage" />
        <dc:title></dc:title>
      </cc:Work>
    </rdf:RDF>
  </metadata>
  <g
     inkscape:label="Capa 1"
     inkscape:groupmode="layer"
     id="layer1"
     transform="translate(-105.35996,-143.43644)">
    <circle
       style="opacity:1;fill:#222831;fill-opacity:1;stroke:none;stroke-width:2.61899996;stroke-miterlimit:4;stroke-dasharray:none;stroke-opacity:1"
       id="path3336"
       cx="355.71429"
       cy="393.79077"
       r="250" />
    <rect
       style="opacity:1;fill:#222831;fill-opacity:1;stroke:none;stroke-width:2.61899996;stroke-miterlimit:4;stroke-dasharray:none;stroke-opacity:1"
       id="rect3338"
       width="265.71429"
       height="214.28572"
       x="222.85715"
       y="566.64789"
       ry="49.915947" />
    <path
       style="opacity:1;fill:#eeeeee;fill-opacity:1;stroke:none;stroke-width:2.61899996;stroke-miterlimit:4;stroke-dasharray:none;stroke-opacity:1"
       d="m 262.85714,635.21936 c 0,0 63.21184,11.62596 94.87745,11.60187 31.66562,-0.0241 93.69398,-11.60187 93.69398,-11.60187 4.71258,-0.58355 8.57143,3.82286 8.57143,8.57143 0,4.74857 -3.82286,8.57143 -8.57143,8.57143 0,0 -62.6271,11.42857 -94.28571,11.42857 -31.65861,0 -94.28572,-11.42857 -94.28572,-11.42857 -4.71406,-0.5714 -8.57142,-3.82286 -8.57142,-8.57143 0,-4.74857 3.82285,-8.57143 8.57142,-8.57143 z"
       id="rect3340"
       inkscape:connector-curvature="0"
       sodipodi:nodetypes="szssszsss" />
    <circle
       r="200"
       cy="393.79077"
       cx="355.71429"
       id="circle3346"
       style="opacity:1;fill:#eeeeee;fill-opacity:1;stroke:none;stroke-width:2.61899996;stroke-miterlimit:4;stroke-dasharray:none;stroke-opacity:1" />
    <path
       sodipodi:nodetypes="szssszsss"
       inkscape:connector-curvature="0"
       id="path3359"
       d="m 262.85714,675.21936 c 0,0 63.21184,11.62596 94.87745,11.60187 31.66562,-0.0241 93.69398,-11.60187 93.69398,-11.60187 4.71258,-0.58355 8.57143,3.82286 8.57143,8.57143 0,4.74857 -3.82286,8.57143 -8.57143,8.57143 0,0 -62.6271,11.42857 -94.28571,11.42857 -31.65861,0 -94.28572,-11.42857 -94.28572,-11.42857 -4.71406,-0.5714 -8.57142,-3.82286 -8.57142,-8.57143 0,-4.74857 3.82285,-8.57143 8.57142,-8.57143 z"
       style="opacity:1;fill:#eeeeee;fill-opacity:1;stroke:none;stroke-width:2.61899996;stroke-miterlimit:4;stroke-dasharray:none;stroke-opacity:1" />
    <path
       style="opacity:1;fill:#eeeeee;fill-opacity:1;stroke:none;stroke-width:2.61899996;stroke-miterlimit:4;stroke-dasharray:none;stroke-opacity:1"
       d="m 262.85714,715.21936 c 0,0 63.21184,11.62596 94.87745,11.60187 31.66562,-0.0241 93.69398,-11.60187 93.69398,-11.60187 4.71258,-0.58355 8.57143,3.82286 8.57143,8.57143 0,4.74857 -3.82286,8.57143 -8.57143,8.57143 0,0 -62.6271,11.42857 -94.28571,11.42857 -31.65861,0 -94.28572,-11.42857 -94.28572,-11.42857 -4.71406,-0.5714 -8.57142,-3.82286 -8.57142,-8.57143 0,-4.74857 3.82285,-8.57143 8.57142,-8.57143 z"
       id="path3361"
       inkscape:connector-curvature="0"
       sodipodi:nodetypes="szssszsss" />
    <rect
       style="opacity:1;fill:#222831;fill-opacity:1;stroke:none;stroke-width:2.61899996;stroke-miterlimit:4;stroke-dasharray:none;stroke-opacity:1"
       id="rect3363"
       width="15.071396"
       height="151.22806"
       x="525.79956"
       y="381.71243"
       ry="6.164187"
       transform="matrix(0.98989499,0.14180235,-0.21479538,0.97665907,0,0)" />
    <rect
       transform="matrix(-0.98989499,0.14180235,0.21479538,0.97665907,0,0)"
       ry="6.164187"
       y="483.15784"
       x="-172.89943"
       height="151.22806"
       width="15.071396"
       id="rect3365"
       style="opacity:1;fill:#222831;fill-opacity:1;stroke:none;stroke-width:2.61899996;stroke-miterlimit:4;stroke-dasharray:none;stroke-opacity:1" />
    <path
       style="opacity:1;fill:#222831;fill-opacity:1;stroke:#222831;stroke-width:10;stroke-miterlimit:4;stroke-dasharray:none;stroke-opacity:1"
       d="m 267.67053,307.47342 c 1.34749,0 2.43228,0.96529 2.43228,2.16431 l -94.43764,72.89747 94.43764,71.87818 c 1.02396,0.77936 -1.08479,2.16431 -2.43228,2.16431 -1.34745,0 -2.43225,-0.96528 -2.43225,-2.16431 l -93.24973,-72.4067 93.24973,-72.36895 c 1.01551,-0.78811 1.0848,-2.16431 2.43225,-2.16431 z"
       id="rect52265"
       inkscape:connector-curvature="0"
       sodipodi:nodetypes="sscssscss" />
    <path
       sodipodi:nodetypes="sscssscss"
       inkscape:connector-curvature="0"
       id="path52268"
       d="m 445.56174,307.47342 c -1.34749,0 -2.43228,0.96528 -2.43228,2.16432 l 94.43762,72.89746 -94.43762,71.87818 c -1.02396,0.77937 1.08479,2.16431 2.43228,2.16431 1.34745,0 2.43225,-0.96529 2.43225,-2.16431 l 93.24971,-72.40669 -93.24971,-72.36895 c -1.01551,-0.78812 -1.0848,-2.16432 -2.43225,-2.16432 z"
       style="opacity:1;fill:#222831;fill-opacity:1;stroke:#222831;stroke-width:10;stroke-miterlimit:4;stroke-dasharray:none;stroke-opacity:1" />
    <rect
       style="opacity:1;fill:#222831;fill-opacity:1;stroke:#222831;stroke-width:10;stroke-miterlimit:4;stroke-dasharray:none;stroke-opacity:1"
       id="rect52344"
       width="8.9432793"
       height="211.28494"
       x="474.74127"
       y="107.79269"
       ry="0.41921648"
       transform="matrix(0.91845279,0.39553062,-0.39553062,0.91845279,0,0)" />
  </g>
</svg>
